<?xml version="1.0" encoding="UTF-8" standalone="no"?>
<svg
   xmlns:dc="http://purl.org/dc/elements/1.1/"
   xmlns:cc="http://creativecommons.org/ns#"
   xmlns:rdf="http://www.w3.org/1999/02/22-rdf-syntax-ns#"
   xmlns:svg="http://www.w3.org/2000/svg"
   xmlns="http://www.w3.org/2000/svg"
   xmlns:sodipodi="http://sodipodi.sourceforge.net/DTD/sodipodi-0.dtd"
   xmlns:inkscape="http://www.inkscape.org/namespaces/inkscape"
   width="35"
   height="35"
   viewBox="0 0 35 35.000001"
   version="1.1"
   id="svg2"
   inkscape:version="0.91 r13725"
   sodipodi:docname="bkmBar_.svg">
  <metadata
     id="metadata12">
    <rdf:RDF>
      <cc:Work
         rdf:about="">
        <dc:format>image/svg+xml</dc:format>
        <dc:type
           rdf:resource="http://purl.org/dc/dcmitype/StillImage" />
        <dc:title></dc:title>
      </cc:Work>
    </rdf:RDF>
  </metadata>
  <defs
     id="defs10" />
  <sodipodi:namedview
     pagecolor="#ffffff"
     bordercolor="#666666"
     borderopacity="1"
     objecttolerance="10"
     gridtolerance="10"
     guidetolerance="10"
     inkscape:pageopacity="0"
     inkscape:pageshadow="2"
     inkscape:window-width="1920"
     inkscape:window-height="1017"
     id="namedview8"
     showgrid="false"
     inkscape:zoom="16.113633"
     inkscape:cx="-0.080505424"
     inkscape:cy="10.305858"
     inkscape:window-x="-8"
     inkscape:window-y="-8"
     inkscape:window-maximized="1"
     inkscape:current-layer="svg2" />
  <g
     transform="translate(2,-1017.3622)"
     id="g4"
     style="fill:#ffffff">
    <path
       d="M 5,7 5,9 25,9 25,7 5,7 Z m 5.8125,4.722656 C 10.195847,11.690656 9.6093164,11.7608 9.1308594,12 c -1.813528,0.9068 -3,3 -1,6 1.849794,2.7747 6.1047466,6.268594 6.8671876,6.308594 l 0,-11.367188 c -0.267635,-0.1304 -2.350668,-1.12375 -4.185547,-1.21875 z m 8.373047,0 C 17.350668,11.817716 15.267635,12.810979 15,12.941406 l 0,11.367188 C 15.762441,24.268273 20.017394,20.774693 21.867188,18 c 2,-3 0.813528,-5.0932 -1,-6 -0.478457,-0.239225 -1.064988,-0.309291 -1.681641,-0.277344 z"
       transform="translate(0,1017.3622)"
       id="path6"
       style="fill:#ffffff"
       inkscape:connector-curvature="0" />
  </g>
</svg>
